<svg id="regular" enable-background="new 0 0 24 24" height="512" viewBox="0 0 24 24" width="512" xmlns="http://www.w3.org/2000/svg"><path d="m1.75 0c-.414 0-.75.336-.75.75v1.237 10.959 10.304c0 .414.336.75.75.75s.75-.336.75-.75v-9.952c.814-.63 3.823-2.572 8.533-1.147 6.457 1.961 11.625-5.659 11.841-5.984.173-.26.167-.601-.016-.854-.183-.254-.504-.368-.806-.285-.052.016-5.215 1.372-9.873-1.891-3.558-2.494-7.837-2.278-9.679-2.034v-.353c0-.414-.336-.75-.75-.75zm9.57 4.364c3.41 2.389 7 2.587 9.159 2.416-1.728 1.961-5.201 5.09-9.012 3.935-4.279-1.298-7.36-.155-8.967.78v-8.876c1.499-.214 5.584-.52 8.82 1.745z"/></svg>